<svg width="140" height="38" viewBox="0 0 140 38" fill="none" xmlns="http://www.w3.org/2000/svg">
<path d="M96.7872 6.00696C96.524 6.03017 96.3268 6.11527 96.1767 6.27001C96.0666 6.38413 96.0045 6.50696 95.9615 6.69458L95.9385 6.7942V18.3562C95.9385 29.3911 95.9395 29.922 95.9565 30.0023C96.0175 30.2924 96.1657 30.5207 96.3949 30.6773C96.496 30.746 96.583 30.7866 96.8342 30.8833C98.1914 31.4037 99.7618 31.7489 101.488 31.9046C102.448 31.9917 103.57 32.0226 104.311 31.983C106.317 31.8737 108.002 31.2982 109.33 30.2673C110.094 29.6744 110.736 28.9288 111.257 28.0323C111.365 27.8466 111.581 27.4201 111.671 27.215C112.32 25.745 112.648 24.0168 112.648 22.0699C112.648 19.508 112.085 17.3562 111.002 15.7691C109.841 14.0689 108.105 13.0254 105.882 12.6946C105.094 12.5766 104.198 12.5496 103.3 12.6163C102.299 12.6908 101.24 12.8484 100.247 13.0718C100.118 13.1008 100.004 13.1269 99.995 13.1298C99.9779 13.1347 99.9769 12.9625 99.9739 9.96927C99.9709 7.60368 99.9669 6.78839 99.9589 6.741C99.9149 6.50696 99.8418 6.35802 99.7097 6.23326C99.6026 6.13075 99.4675 6.06498 99.2793 6.0234C99.1813 6.00212 99.1803 6.00212 98.0303 6.00019C97.3977 5.99922 96.8372 6.00212 96.7872 6.00696ZM104.495 16.1357C104.996 16.1917 105.394 16.2865 105.773 16.4413C107.252 17.0428 108.151 18.4722 108.443 20.6869C108.548 21.48 108.568 22.5525 108.493 23.3901C108.37 24.7817 108.014 25.9036 107.432 26.7363C107.264 26.9781 107.095 27.1744 106.876 27.3794C106.193 28.0226 105.316 28.3949 104.217 28.5061C103.602 28.568 102.568 28.5332 101.653 28.4181C101.124 28.3524 100.425 28.217 99.999 28.099L99.9769 28.0932L99.9789 22.3717L99.9819 16.6511L100.027 16.6376C100.151 16.6008 100.54 16.5032 100.73 16.4616C101.579 16.272 102.382 16.1676 103.36 16.1182C103.396 16.1163 103.634 16.1163 103.89 16.1173C104.242 16.1192 104.39 16.124 104.495 16.1357Z" fill="black"/>
<path d="M117.375 6.25359C117.033 6.29324 116.645 6.42477 116.351 6.60079C116.118 6.74102 115.857 6.96249 115.696 7.15688C115.399 7.51762 115.223 7.91511 115.149 8.38997C115.128 8.52246 115.131 8.91222 115.153 9.05051C115.24 9.5834 115.487 10.0505 115.881 10.4258C116.868 11.3697 118.442 11.39 119.431 10.4712C119.579 10.3329 119.683 10.212 119.796 10.0486C119.999 9.75265 120.137 9.40061 120.191 9.03794C120.215 8.87643 120.215 8.5302 120.19 8.37063C120.107 7.8213 119.872 7.35515 119.484 6.96926C119.077 6.56597 118.558 6.31742 117.986 6.25262C117.829 6.23522 117.53 6.23522 117.375 6.25359Z" fill="black"/>
<path d="M50.3543 12.5932C49.2834 12.6241 48.4667 12.7093 47.7921 12.8592C46.6642 13.1116 45.8775 13.5884 45.4451 14.2847C45.1869 14.7006 45.0518 15.1464 45.0098 15.716C44.9967 15.9027 44.9967 30.7287 45.0098 30.8322C45.0408 31.0662 45.1128 31.221 45.26 31.3651C45.4051 31.5073 45.5742 31.5817 45.8235 31.6146C45.8755 31.6214 46.2909 31.6252 47.0445 31.6252C48.2996 31.6252 48.2946 31.6252 48.4757 31.5672C48.6028 31.5256 48.6939 31.4715 48.789 31.3796C48.9111 31.2616 48.9772 31.133 49.0202 30.9289C49.0362 30.8515 49.0372 30.4212 49.0432 23.6029L49.0482 16.3592L49.2334 16.3331C49.6107 16.2799 50.0791 16.2364 50.6246 16.2025C51.0329 16.1783 52.2049 16.1774 52.4962 16.2025C53.2548 16.2673 53.8073 16.3872 54.3167 16.5971C54.8652 16.8244 55.3316 17.1803 55.6589 17.6213C56.1583 18.2934 56.4366 19.2373 56.5236 20.5468C56.5326 20.6745 56.5416 20.8118 56.5456 20.8515C56.5486 20.8911 56.5547 23.1648 56.5587 25.9047C56.5657 30.5585 56.5667 30.8902 56.5827 30.9521C56.6107 31.0585 56.6447 31.1456 56.6858 31.2142C56.7078 31.249 56.7318 31.2906 56.7408 31.3051C56.7638 31.3467 56.8949 31.455 56.977 31.4995C57.0561 31.544 57.1452 31.5759 57.2603 31.602C57.3293 31.6185 57.4274 31.6194 58.5063 31.6233C59.31 31.6252 59.7074 31.6233 59.7724 31.6156C59.9055 31.6011 60.0136 31.5721 60.1177 31.5247C60.3439 31.4202 60.487 31.2481 60.5601 30.9918L60.5881 30.8951L60.5911 25.9676C60.5941 20.5865 60.5941 20.4869 60.5371 19.7683C60.46 18.7818 60.2818 17.9163 60.0126 17.2151C59.9786 17.1271 59.9506 17.0497 59.9496 17.042C59.9456 17.0101 60.5201 16.7934 60.9584 16.6609C61.7171 16.4317 62.5028 16.2779 63.2904 16.2025C63.5186 16.1812 64.3203 16.1783 64.5715 16.1977C65.6014 16.2799 66.3751 16.5313 66.9456 16.9714C67.8083 17.6377 68.2927 18.8186 68.4238 20.5807C68.4589 21.0381 68.4599 21.2161 68.4599 25.9192C68.4599 28.8399 68.4639 30.6775 68.4699 30.7645C68.4849 30.9773 68.5289 31.1243 68.616 31.2548C68.637 31.2858 68.653 31.3138 68.652 31.3177C68.65 31.3254 68.7601 31.4183 68.8262 31.4637C68.9413 31.543 69.0974 31.5962 69.2756 31.6165C69.3346 31.6233 69.771 31.6252 70.5466 31.6223C71.5995 31.6194 71.7347 31.6175 71.7927 31.603C71.9438 31.5662 72.071 31.5102 72.158 31.4405C72.2401 31.3748 72.2931 31.3254 72.2931 31.3148C72.2931 31.309 72.3011 31.2926 72.3122 31.279C72.3422 31.2365 72.3892 31.1417 72.4112 31.074C72.4673 30.9096 72.4633 31.2674 72.4633 25.8235C72.4633 20.984 72.4613 20.6416 72.4333 20.2083C72.2711 17.7209 71.5265 15.836 70.2013 14.5555C69.5788 13.9539 68.8542 13.5023 67.9744 13.1677C67.1057 12.8369 66.0938 12.6464 64.9288 12.5913C64.6536 12.5787 63.7048 12.5845 63.4606 12.6009C62.7209 12.6503 62.1354 12.7238 61.5239 12.8447C60.1587 13.1145 58.9467 13.57 57.8738 14.217L57.7016 14.3214L57.6636 14.2895C57.4975 14.1532 57.1552 13.9162 56.905 13.7654C55.6939 13.0352 54.2937 12.6735 52.3561 12.5922C52.0948 12.5816 50.7447 12.5816 50.3543 12.5932Z" fill="black"/>
<path d="M83.678 12.5928C82.2387 12.6789 80.9666 13.0435 79.8297 13.6972C78.6817 14.3578 77.7299 15.2988 77.0142 16.4816C76.2136 17.8046 75.7311 19.442 75.601 21.2766C75.554 21.9487 75.556 22.7998 75.606 23.5493C75.6991 24.9265 75.9643 26.1886 76.3777 27.2283C76.5909 27.7631 76.8591 28.2844 77.1434 28.7157C78.1432 30.2331 79.5985 31.2341 81.4761 31.6974C82.0906 31.8492 82.7101 31.9382 83.4728 31.9836C83.723 31.9991 84.5307 31.9991 84.7839 31.9846C85.3734 31.9488 85.8368 31.8937 86.3272 31.7979C88.1378 31.4459 89.611 30.6268 90.698 29.3666C92.1342 27.7022 92.8708 25.2728 92.8708 22.205C92.8708 20.5812 92.6476 19.1325 92.2013 17.8626C91.4026 15.586 89.8903 13.9864 87.7715 13.1769C86.8957 12.8423 85.9219 12.6498 84.8239 12.5918C84.6108 12.5802 83.8701 12.5812 83.678 12.5928ZM84.6037 16.0154C85.2983 16.0532 85.8528 16.1827 86.3552 16.4226C86.8467 16.6576 87.219 16.9516 87.5593 17.3713C87.6474 17.4806 87.8155 17.7243 87.8906 17.852C88.4961 18.8781 88.7973 20.3482 88.7973 22.2679C88.7973 22.9188 88.7643 23.4488 88.6912 23.9749C88.344 26.4807 87.226 27.9942 85.3994 28.4323C84.9691 28.5358 84.5637 28.5755 84.0333 28.5658C83.6339 28.5581 83.3787 28.5349 83.0574 28.4759C81.8013 28.2438 80.9276 27.591 80.3651 26.4652C80.0048 25.7447 79.7746 24.8414 79.6695 23.7379C79.6055 23.0561 79.5864 22.2389 79.6205 21.6151C79.7085 19.9874 80.1549 18.587 80.8936 17.6209C81.0727 17.3868 81.3319 17.1141 81.5501 16.9323C81.9295 16.6141 82.3868 16.3636 82.8603 16.2147C83.3887 16.0473 83.9712 15.9816 84.6037 16.0154Z" fill="black"/>
<path d="M130.883 12.5881C130.152 12.6355 129.644 12.709 129.067 12.8531C127.676 13.1983 126.441 13.8744 125.454 14.8308C124.041 16.1984 123.154 18.061 122.828 20.3483C122.782 20.6626 122.743 21.0582 122.715 21.4895C122.688 21.9121 122.693 22.8802 122.726 23.4141C122.89 26.0456 123.609 28.0795 124.888 29.5215C126.149 30.9422 127.92 31.7565 130.178 31.9528C130.564 31.9867 130.797 31.9963 131.259 31.9963C131.72 31.9963 131.953 31.9867 132.34 31.9528C134.033 31.8058 135.473 31.3058 136.638 30.4605C137.416 29.8977 138.075 29.1694 138.59 28.3019C138.709 28.1027 138.934 27.6636 139.032 27.4421C139.586 26.1917 139.89 24.7864 139.981 23.0611C139.987 22.9547 139.994 22.6742 139.998 22.4373C140.031 20.1249 139.604 18.1123 138.749 16.5465C137.81 14.826 136.363 13.6345 134.481 13.031C133.764 12.8008 133.052 12.6703 132.139 12.6007C132.007 12.591 131.002 12.5803 130.883 12.5881ZM131.899 16.0252C132.736 16.0958 133.388 16.3067 133.953 16.6897C135.069 17.4459 135.715 18.9053 135.883 21.0543C135.915 21.4711 135.922 21.6926 135.923 22.2632C135.923 22.8396 135.917 23.0127 135.882 23.4189C135.729 25.2332 135.18 26.6278 134.284 27.4876C133.605 28.1394 132.747 28.4886 131.654 28.5601C131.433 28.5747 130.917 28.5659 130.693 28.5447C129.457 28.4276 128.561 27.9799 127.926 27.1617C127.319 26.3793 126.94 25.2303 126.801 23.7477C126.753 23.24 126.737 22.888 126.736 22.2874C126.736 21.7951 126.742 21.6201 126.775 21.2477C126.902 19.8164 127.322 18.5707 127.976 17.6839C128.732 16.6606 129.767 16.1026 131.079 16.0156C131.235 16.0059 131.732 16.0107 131.899 16.0252Z" fill="black"/>
<path d="M116.467 12.9605C115.995 13.0127 115.703 13.2767 115.635 13.7139C115.622 13.7932 115.62 14.9537 115.62 22.2893C115.62 28.2739 115.623 30.7942 115.631 30.8474C115.693 31.2836 115.981 31.5534 116.444 31.6144C116.552 31.6289 118.762 31.6289 118.87 31.6144C119.208 31.5699 119.426 31.4287 119.553 31.1705C119.6 31.0747 119.629 30.9693 119.644 30.8465C119.659 30.7188 119.658 13.8454 119.643 13.7284C119.623 13.5727 119.58 13.4402 119.513 13.3289C119.481 13.2767 119.276 13.0688 119.266 13.0785C119.264 13.0814 119.225 13.0668 119.18 13.0465C119.085 13.004 118.966 12.974 118.838 12.9595C118.731 12.9479 116.571 12.9489 116.467 12.9605Z" fill="black"/>
<path d="M30.3212 0.00845528C29.0313 0.0920982 27.8445 0.752592 27.0667 1.82073C26.7814 2.21202 26.5249 2.72735 26.3901 3.18017C26.1754 3.90412 26.0007 4.34926 25.7275 4.87227C25.0918 6.08558 24.1402 7.12391 22.998 7.8469C22.0241 8.46413 20.9368 8.85158 19.8243 8.97656C19.5409 9.00925 19.4266 9.01598 19.1227 9.02271C18.3634 9.03809 17.6255 8.94003 16.8867 8.72659C16.7752 8.69391 16.6562 8.66122 16.6228 8.65353C16.1386 8.54296 15.738 8.50739 15.3171 8.53623C14.3589 8.60065 13.4872 8.96503 12.7335 9.61302C12.6034 9.72551 12.333 10.0072 12.214 10.1553C11.6527 10.8533 11.32 11.6589 11.2075 12.5925C11.1945 12.704 11.1908 12.803 11.1908 13.0924C11.1908 13.477 11.1973 13.5683 11.2475 13.8711C11.3757 14.6528 11.7335 15.4402 12.2363 16.0488C12.6201 16.5141 13.0736 16.8813 13.6071 17.1592C14.2018 17.4697 14.8254 17.6303 15.4936 17.6466C16.0968 17.6611 16.659 17.5572 17.2222 17.3274C17.4629 17.2294 17.8374 17.0246 18.0577 16.8717C18.7082 16.417 19.2742 15.7324 19.5827 15.0248C19.6078 14.9691 19.6292 14.922 19.631 14.9201C19.6329 14.9172 19.6403 14.9239 19.6468 14.9345C19.6543 14.9441 19.6617 14.9508 19.6645 14.9479C19.6664 14.945 19.7091 14.796 19.7584 14.6162C19.8085 14.4365 19.8699 14.2221 19.8959 14.1403C20.224 13.0943 20.7323 12.1704 21.4451 11.3234C21.5957 11.1446 21.9432 10.7831 22.1105 10.6321C22.9646 9.86011 23.9367 9.2996 24.9822 8.97272C25.694 8.75159 26.3343 8.64776 27.0778 8.6343C27.615 8.62468 28.0899 8.66506 28.6205 8.76601C28.9318 8.82466 29.166 8.88619 29.6985 9.04771C29.8445 9.09193 29.9643 9.12751 29.9662 9.12558C29.9681 9.12462 29.9643 9.11405 29.9588 9.10251C29.9532 9.09097 29.9495 9.0804 29.9513 9.07847C29.9532 9.07655 29.9978 9.08136 30.0517 9.08809C30.3063 9.12174 30.6623 9.13231 30.9169 9.11212C31.8472 9.03809 32.7208 8.66987 33.4391 8.04591C33.5581 7.94304 33.7913 7.70461 33.9094 7.56616C34.8564 6.45188 35.2188 4.90111 34.8694 3.45899C34.6157 2.41392 34.0209 1.50154 33.178 0.867001C32.3667 0.2565 31.3249 -0.056921 30.3212 0.00845528Z" fill="#E41B4D"/>
<path d="M4.12784 10.5458C3.26356 10.6093 2.44016 10.9237 1.76825 11.4457C1.42254 11.714 1.09541 12.0591 0.841704 12.4196C0.0526968 13.5445 -0.198224 14.9741 0.159571 16.3124C0.305477 16.8614 0.563832 17.4046 0.8891 17.8469C1.75338 19.0246 3.09535 19.6947 4.51352 19.6553C4.63898 19.6524 4.77466 19.6457 4.81555 19.6409C4.85644 19.6361 4.89083 19.6332 4.89269 19.6351C4.89454 19.637 4.89176 19.6476 4.88525 19.6582C4.87875 19.6716 4.87875 19.6784 4.88525 19.6784C4.89083 19.6784 5.04417 19.6399 5.22725 19.5928C5.99581 19.3938 6.4865 19.3207 7.15283 19.3063C8.71691 19.2746 10.2308 19.7322 11.5505 20.6359C12.1787 21.0666 12.7632 21.6137 13.2446 22.2213C13.7632 22.8751 14.1907 23.6423 14.4853 24.447C14.6145 24.8018 14.6991 25.0959 14.8199 25.6103C14.9156 26.017 14.9026 25.9747 14.9212 25.9497C14.937 25.9305 14.9388 25.9324 14.9825 26.042C15.5438 27.4312 16.7464 28.4484 18.1841 28.7474C18.4675 28.807 18.7147 28.8311 19.0446 28.8311C19.5502 28.8311 19.9851 28.758 20.4609 28.5926C21.6877 28.1648 22.6635 27.2053 23.1486 25.9468C23.2861 25.5892 23.3819 25.1959 23.4311 24.7787C23.4516 24.6066 23.459 24.1422 23.445 23.949C23.3642 22.8491 22.9181 21.8329 22.1793 21.0638C21.4312 20.285 20.447 19.813 19.3894 19.7255C19.2045 19.711 18.7231 19.7187 18.5558 19.7408C18.3671 19.7649 18.1822 19.7995 17.9898 19.8466C17.5586 19.9514 17.1841 20.0139 16.7297 20.0533C16.5364 20.0706 15.9648 20.0764 15.7492 20.0639C14.6981 20.0014 13.7214 19.7389 12.7939 19.2717C12.1852 18.964 11.6518 18.5996 11.109 18.1189C10.9482 17.9757 10.5217 17.5373 10.3776 17.3661C9.57004 16.4057 9.00407 15.2885 8.70483 14.0637C8.61375 13.6906 8.50595 13.382 8.3554 13.0686C7.92883 12.1764 7.24949 11.4717 6.38148 11.0227C6.15658 10.9064 6.00139 10.8391 5.78485 10.765C5.47445 10.6583 5.14732 10.5881 4.8109 10.5545C4.66314 10.5401 4.27375 10.5343 4.12784 10.5458Z" fill="#E41B4D"/>
<path d="M26.576 11.185C26.5583 11.1869 26.4914 11.1936 26.4273 11.1985C25.9208 11.2436 25.3418 11.4129 24.88 11.6532C24.6504 11.7715 24.3158 11.9916 24.1272 12.1464C23.6095 12.5723 23.1988 13.0886 22.9107 13.677C22.6495 14.2115 22.4962 14.7817 22.4488 15.3931C22.4349 15.5825 22.4423 16.0815 22.4627 16.2555C22.551 17.0006 22.8038 17.7034 23.1997 18.3033L23.2666 18.4043L23.2369 18.4091L23.2071 18.4139L23.3558 18.5725C23.7805 19.0254 23.8856 19.1446 24.0844 19.3994C25.011 20.5848 25.5881 22.0106 25.748 23.5094C25.7851 23.8555 25.7907 23.9747 25.7907 24.3987C25.7907 24.8237 25.7842 24.964 25.748 25.2928C25.5881 26.7677 25.0352 28.1588 24.1458 29.326C23.9004 29.6481 23.6514 29.925 23.2508 30.3211C22.9795 30.5903 22.9572 30.6143 22.9813 30.6172C22.9953 30.6191 23.0073 30.6229 23.0073 30.6258C23.0073 30.6287 22.9739 30.6777 22.9339 30.7335C22.4804 31.3652 22.197 32.1103 22.1003 32.9265C22.0799 33.0996 22.0724 33.5995 22.0864 33.7889C22.1709 34.8849 22.6189 35.8906 23.3698 36.6664C24.3354 37.6653 25.6838 38.1412 27.0425 37.9634C28.8436 37.7278 30.3287 36.3597 30.7627 34.5398C30.8091 34.3427 30.8417 34.1542 30.8667 33.9408C30.89 33.7351 30.8909 33.1265 30.8667 32.9313C30.7998 32.3795 30.6651 31.9045 30.442 31.4315C30.245 31.0142 29.9894 30.6383 29.6567 30.273C28.9514 29.499 28.4226 28.6443 28.0583 27.6868C27.5843 26.4427 27.4235 25.0881 27.5899 23.7546C27.7916 22.1384 28.4625 20.6386 29.5285 19.4215C29.5833 19.359 29.732 19.2003 29.8593 19.0686C30.1828 18.7341 30.3324 18.5495 30.521 18.2553C30.9402 17.6015 31.1781 16.8833 31.2422 16.0777C31.2561 15.8959 31.2478 15.3989 31.2273 15.2268C31.1186 14.3067 30.7896 13.5145 30.2209 12.804C30.1065 12.6617 29.8175 12.3627 29.68 12.2445C28.9458 11.6157 28.0955 11.2609 27.1568 11.1888C27.0388 11.1802 26.655 11.1773 26.576 11.185Z" fill="#E41B4D"/>
</svg>
